<?xml version="1.0" standalone="no"?>
<!DOCTYPE svg PUBLIC "-//W3C//DTD SVG 20010904//EN"
 "http://www.w3.org/TR/2001/REC-SVG-20010904/DTD/svg10.dtd">
<svg version="1.0" xmlns="http://www.w3.org/2000/svg"
 width="910.000000pt" height="910.000000pt" viewBox="0 0 910.000000 910.000000"
 preserveAspectRatio="xMidYMid meet">
<metadata>
Created by potrace 1.11, written by Peter Selinger 2001-2013
</metadata>
<g transform="translate(0.000000,910.000000) scale(0.100000,-0.100000)"
fill="#000000" stroke="none">
<path d="M5818 9015 c-2 -1 -39 -5 -83 -9 -74 -6 -145 -15 -235 -32 -59 -10
-242 -73 -308 -105 -34 -17 -91 -53 -125 -80 -34 -28 -98 -69 -142 -92 -59
-31 -105 -67 -177 -137 -54 -52 -125 -122 -159 -155 -34 -33 -89 -100 -123
-149 -33 -49 -77 -112 -96 -140 -47 -67 -97 -193 -150 -374 -32 -107 -45 -217
-43 -370 l1 -114 -26 7 c-67 17 -162 34 -222 39 -84 8 -1043 9 -1092 2 -38 -6
-66 6 -303 134 -77 41 -424 156 -500 165 -22 3 -56 7 -75 10 -19 2 -64 8 -100
12 -36 4 -139 7 -230 7 -147 -2 -175 -5 -255 -28 -334 -99 -553 -306 -631
-598 -20 -73 -26 -236 -14 -324 45 -306 277 -587 568 -689 42 -15 113 -42 157
-60 44 -19 97 -38 117 -43 27 -7 67 -41 155 -128 65 -66 137 -130 161 -144
l43 -25 -8 -90 c-8 -91 -9 -359 -3 -515 3 -77 0 -94 -33 -185 -19 -55 -38
-129 -42 -165 -4 -36 -9 -76 -12 -90 -2 -14 -7 -151 -9 -305 -3 -154 -10 -302
-15 -330 -14 -67 -40 -186 -45 -205 -6 -26 -104 -284 -114 -302 -5 -9 -31 -57
-56 -105 -26 -48 -60 -112 -75 -142 -91 -170 -109 -357 -58 -609 28 -141 97
-255 269 -445 106 -118 311 -233 450 -253 19 -3 42 -7 50 -10 8 -3 83 -7 165
-9 212 -6 308 20 492 130 181 110 302 213 373 318 71 107 131 281 139 405 1
10 7 10 29 -1 46 -23 299 -87 343 -87 11 0 19 -7 20 -17 0 -10 2 -26 4 -35 2
-10 6 -59 10 -110 4 -51 8 -99 10 -108 2 -8 6 -49 10 -90 3 -41 8 -86 10 -100
2 -14 7 -50 10 -80 4 -30 8 -66 10 -80 2 -14 6 -52 10 -85 9 -84 33 -200 55
-265 l19 -56 -25 -84 c-70 -242 -76 -460 -18 -682 48 -188 150 -330 334 -467
94 -70 193 -116 307 -142 48 -11 120 -29 158 -40 78 -21 103 -25 190 -34 33
-3 89 -14 125 -23 99 -26 274 -23 370 7 190 58 333 157 452 314 74 100 121
194 144 294 l18 75 36 -7 c126 -23 262 -27 355 -9 22 4 56 7 75 6 19 -1 81 -2
136 -3 345 -4 665 234 763 566 11 39 22 84 25 100 3 17 12 66 21 110 62 311
-77 614 -393 854 l-84 63 7 162 c10 246 14 308 25 341 8 25 21 92 47 235 2 14
8 43 13 65 5 22 12 63 15 90 11 94 18 110 65 165 216 250 331 615 296 935 -11
109 -10 376 2 408 7 15 10 27 7 27 -2 0 1 14 6 32 17 62 24 185 21 422 l-2
239 35 147 c19 81 37 160 39 176 3 16 8 40 11 54 3 14 7 50 11 80 3 30 7 65 9
77 4 22 24 189 30 248 2 17 4 33 4 36 1 4 50 35 110 69 286 164 446 329 546
565 21 50 51 115 66 145 27 54 62 156 75 215 11 53 14 398 4 470 -5 39 -16 93
-23 120 -8 28 -24 91 -36 142 -78 327 -345 577 -663 619 -86 11 -256 10 -358
-2 l-95 -11 -62 38 c-125 78 -271 125 -415 133 -50 3 -98 14 -148 34 -148 58
-200 66 -487 68 -144 1 -263 0 -265 -1z m539 -108 c61 -11 118 -29 188 -58 47
-19 94 -30 145 -33 170 -11 306 -57 422 -142 52 -39 37 -38 215 -15 72 8 273
7 318 -3 17 -3 39 -8 50 -10 244 -48 472 -289 525 -553 6 -32 21 -94 33 -138
19 -70 22 -105 22 -280 -1 -110 -5 -222 -9 -250 -9 -58 -48 -165 -77 -214 -11
-18 -33 -67 -50 -110 -42 -106 -66 -149 -128 -228 -93 -117 -254 -241 -446
-343 -44 -23 -83 -45 -86 -49 -4 -3 -10 -41 -13 -84 -3 -43 -10 -108 -15 -145
-5 -37 -12 -92 -16 -122 -11 -100 -44 -273 -74 -390 -29 -114 -29 -118 -27
-355 3 -250 -2 -336 -29 -470 -19 -89 -22 -281 -9 -445 13 -167 11 -229 -11
-317 -3 -13 -7 -32 -10 -43 -47 -216 -147 -408 -284 -550 -28 -29 -37 -48 -49
-110 -7 -41 -15 -91 -17 -110 -2 -20 -8 -63 -14 -95 -7 -33 -14 -78 -17 -100
-3 -22 -14 -74 -25 -116 -20 -83 -25 -144 -34 -424 l-5 -190 96 -70 c229 -165
352 -343 385 -556 11 -75 7 -184 -11 -254 -6 -22 -13 -58 -16 -80 -29 -194
-178 -398 -361 -493 -135 -70 -286 -99 -420 -81 -38 5 -84 3 -133 -5 -74 -13
-216 -14 -276 -2 -17 3 -66 17 -109 31 -42 14 -79 24 -80 23 -2 -2 -5 -34 -8
-73 -6 -76 -23 -163 -36 -180 -5 -5 -11 -22 -15 -37 -10 -41 -104 -176 -168
-239 -65 -65 -169 -135 -245 -167 -122 -51 -297 -63 -414 -28 -31 9 -88 19
-125 21 -38 2 -91 11 -119 18 -68 19 -126 33 -215 53 -133 29 -260 103 -397
232 -155 145 -236 442 -197 722 17 119 20 134 52 235 l28 90 -19 50 c-21 56
-20 53 -41 150 -15 75 -17 86 -41 300 -8 77 -17 154 -20 170 -2 17 -7 59 -10
95 -3 36 -8 81 -10 100 -2 19 -7 80 -10 135 -4 58 -12 103 -18 107 -7 4 -25 8
-41 8 -28 0 -188 35 -306 67 -30 8 -92 34 -137 59 -46 24 -83 41 -84 37 0 -5
-2 -35 -4 -68 -12 -235 -72 -395 -198 -532 -37 -40 -226 -183 -242 -183 -4 0
-25 -13 -48 -29 -57 -39 -128 -70 -212 -92 -57 -15 -96 -18 -210 -15 -77 3
-165 10 -195 16 -127 28 -306 126 -386 212 -207 219 -272 366 -279 623 -3 83
1 128 16 183 16 63 94 226 175 367 12 22 35 74 49 115 14 41 39 109 55 150 16
41 43 138 60 215 27 130 30 155 30 345 0 238 5 334 25 475 8 59 50 195 75 245
9 19 16 44 14 55 -22 138 -30 421 -13 523 4 26 10 77 13 113 l7 67 -73 48
c-40 26 -128 103 -194 170 -91 91 -130 124 -155 129 -30 6 -106 34 -319 117
-207 80 -386 283 -450 510 -70 247 -8 497 167 679 72 75 143 123 258 172 134
58 244 78 406 73 74 -2 152 -7 174 -10 22 -3 66 -8 99 -11 156 -14 442 -114
659 -230 l160 -85 71 6 c73 6 216 6 756 4 357 -2 455 -13 623 -74 l94 -34 -8
36 c-5 21 -12 55 -15 77 -3 22 -9 59 -13 81 -10 55 -6 200 8 299 12 79 96 346
132 416 10 20 33 56 51 80 19 24 57 78 85 119 30 45 111 133 200 220 118 115
163 152 218 180 39 19 99 57 135 85 87 69 120 87 220 123 115 41 186 60 251
68 29 3 58 8 62 11 4 3 47 7 95 10 48 3 88 6 90 8 6 5 499 -2 529 -8z"/>
<path d="M5817 8774 c-1 -1 -33 -5 -72 -8 -161 -13 -255 -35 -403 -92 -61 -24
-152 -83 -181 -118 -8 -9 -51 -34 -96 -57 -71 -34 -101 -58 -219 -175 -76 -75
-156 -164 -181 -202 -24 -37 -53 -77 -64 -89 -32 -34 -88 -142 -105 -203 -8
-30 -27 -87 -41 -127 -30 -87 -49 -249 -41 -358 7 -101 11 -122 40 -199 16
-43 23 -79 21 -112 -2 -27 -3 -71 -4 -97 -1 -55 -1 -55 -101 -10 -200 91 -337
131 -485 140 -123 8 -916 8 -1043 0 l-104 -6 -141 77 c-189 103 -208 112 -385
171 -156 52 -220 66 -332 76 -36 3 -76 8 -90 11 -40 8 -231 5 -285 -5 -228
-43 -409 -171 -490 -346 -44 -94 -55 -152 -50 -265 10 -267 209 -515 467 -584
29 -8 77 -26 106 -40 29 -15 78 -33 109 -41 66 -17 114 -48 175 -112 149 -158
221 -217 332 -270 l38 -18 -6 -50 c-4 -27 -8 -63 -10 -80 -2 -16 -7 -55 -10
-85 -4 -30 -9 -73 -11 -95 -6 -52 -6 -294 -1 -321 2 -11 7 -47 10 -80 4 -32 9
-68 12 -79 3 -12 -10 -56 -29 -100 -41 -97 -65 -182 -71 -255 -3 -30 -8 -91
-12 -134 -3 -44 -6 -170 -6 -280 1 -199 -3 -239 -37 -386 -5 -25 -13 -61 -16
-80 -3 -19 -20 -71 -37 -115 -16 -44 -44 -118 -60 -165 -17 -47 -38 -98 -48
-115 -53 -89 -160 -307 -173 -351 -15 -50 -16 -220 -3 -301 16 -94 70 -204
136 -274 22 -24 40 -46 40 -49 0 -3 17 -23 38 -45 111 -119 267 -193 426 -201
230 -12 268 -4 454 101 114 64 239 169 286 240 37 55 78 151 92 215 4 19 8
136 10 260 2 247 11 399 23 431 6 17 10 10 20 -36 48 -212 214 -377 416 -411
17 -3 66 -15 110 -26 52 -13 115 -21 177 -22 79 -1 98 -4 99 -16 1 -8 3 -26 4
-40 1 -14 5 -65 9 -115 4 -49 9 -108 11 -130 2 -22 7 -71 10 -110 3 -38 8 -86
10 -105 3 -19 7 -62 10 -95 3 -33 10 -91 15 -130 6 -38 12 -95 15 -125 13
-130 43 -256 76 -321 21 -42 20 -59 -14 -164 -52 -161 -62 -222 -62 -365 1
-204 56 -369 156 -471 140 -142 257 -204 423 -223 27 -3 54 -10 60 -15 10 -7
29 -13 91 -27 11 -3 54 -7 95 -10 41 -3 95 -12 118 -20 213 -70 467 30 618
241 53 75 91 163 99 231 3 27 10 81 16 120 6 39 10 117 7 173 l-4 101 22 -24
c136 -146 346 -211 556 -172 61 12 103 14 140 8 227 -34 452 65 574 255 44 67
59 108 86 223 74 325 -10 517 -332 758 -63 47 -118 90 -123 96 -10 15 5 550
17 609 7 31 75 376 82 412 3 17 9 65 13 107 9 84 3 73 121 218 154 189 245
453 231 670 -8 140 -7 512 3 550 26 109 33 208 31 450 -3 252 -3 256 26 375
52 214 84 414 104 640 14 166 21 195 45 195 4 0 45 21 91 46 46 26 98 54 114
63 68 37 181 119 245 178 82 76 145 169 189 278 18 44 43 101 57 127 61 116
69 161 68 403 0 166 -3 199 -22 260 -11 39 -24 86 -26 107 -25 170 -156 351
-308 423 -99 47 -188 63 -334 59 -65 -2 -129 -5 -142 -8 -13 -3 -49 -8 -80
-11 -31 -3 -70 -8 -87 -9 -23 -3 -40 5 -75 36 -102 90 -229 136 -392 143 -65
3 -105 9 -121 20 -35 23 -157 63 -223 74 -47 7 -500 12 -507 5z m563 -118 c30
-10 82 -32 115 -49 53 -26 72 -30 155 -32 160 -4 258 -40 361 -133 l60 -55 57
7 c31 4 80 9 107 12 28 3 73 9 100 13 61 9 224 7 285 -3 186 -32 352 -220 374
-424 3 -28 10 -60 15 -70 19 -36 23 -78 26 -252 2 -202 -5 -240 -69 -374 -24
-50 -47 -102 -51 -116 -25 -85 -103 -192 -198 -270 -107 -87 -151 -115 -357
-223 -52 -27 -100 -55 -107 -61 -6 -6 -14 -60 -18 -121 -4 -60 -8 -117 -10
-125 -2 -8 -6 -46 -10 -85 -4 -38 -9 -79 -11 -90 -2 -11 -6 -45 -9 -75 -3 -30
-8 -66 -11 -80 -2 -14 -7 -38 -10 -55 -2 -16 -21 -100 -42 -185 l-37 -155 -1
-300 c-1 -165 -4 -311 -7 -325 -38 -151 -39 -172 -33 -414 10 -355 9 -364 -14
-465 -40 -170 -102 -289 -225 -436 -33 -38 -62 -72 -66 -75 -15 -12 -38 -101
-43 -165 -2 -38 -11 -101 -20 -140 -13 -62 -58 -294 -72 -368 -16 -90 -27
-617 -13 -653 7 -20 44 -53 117 -104 135 -95 267 -225 308 -305 54 -102 67
-215 38 -330 -7 -27 -15 -66 -18 -85 -26 -158 -156 -300 -325 -355 -58 -19
-155 -23 -236 -10 -63 10 -58 10 -132 -8 -71 -17 -200 -16 -259 3 -124 38
-204 99 -304 232 -67 89 -93 136 -121 216 -10 30 -34 71 -53 92 -18 20 -62 85
-96 144 -35 58 -66 106 -70 106 -4 0 -4 -21 0 -48 8 -46 14 -96 26 -189 15
-123 35 -179 95 -271 52 -81 107 -192 94 -192 -2 0 0 -12 5 -26 13 -34 14
-191 2 -240 -6 -21 -13 -63 -15 -92 -8 -78 -35 -144 -92 -220 -59 -79 -151
-151 -232 -183 -74 -29 -206 -32 -273 -7 -25 9 -84 19 -133 22 -48 3 -113 15
-145 26 -31 12 -78 23 -104 25 -67 6 -164 41 -217 78 -194 133 -256 251 -266
502 -5 115 11 212 56 343 39 115 44 173 19 222 -30 60 -58 173 -75 310 -8 69
-17 139 -20 155 -2 17 -7 62 -10 100 -4 39 -8 81 -10 95 -2 14 -7 61 -10 105
-4 44 -9 93 -11 110 -1 16 -6 72 -10 125 -4 52 -8 106 -9 120 -2 14 -3 48 -4
76 -1 39 -5 54 -18 59 -10 4 -79 9 -153 10 -89 2 -149 9 -178 19 -23 8 -70 20
-105 26 -209 38 -343 198 -372 445 -6 47 -7 317 -2 398 1 20 0 37 -3 37 -9 0
-138 -312 -159 -385 -47 -162 -52 -215 -51 -513 0 -249 -10 -325 -59 -426 -47
-98 -118 -164 -291 -268 -146 -88 -176 -95 -380 -84 -178 9 -293 76 -440 255
-96 116 -113 161 -126 341 -5 66 -3 99 10 144 16 55 135 294 162 327 8 8 33
71 57 140 24 68 54 147 65 174 12 28 36 118 54 200 30 140 33 163 34 355 1
192 7 330 20 460 6 59 40 166 84 265 27 61 27 61 12 131 -11 48 -16 127 -16
259 -1 198 3 244 35 450 15 98 14 100 -34 119 -110 42 -230 133 -354 269 -67
73 -144 126 -209 142 -33 9 -86 28 -119 44 -33 16 -92 38 -130 49 -259 77
-436 373 -371 619 24 89 57 145 125 214 84 83 203 141 341 164 42 8 216 9 227
2 4 -3 46 -8 93 -12 115 -9 188 -26 362 -85 98 -34 189 -74 275 -121 230 -128
207 -120 341 -112 146 8 963 8 1064 -1 78 -7 211 -38 263 -61 164 -74 326
-135 360 -135 30 0 36 26 49 227 3 45 7 85 8 90 1 4 -6 26 -15 47 -53 121 -67
230 -48 381 15 120 17 130 45 200 13 33 32 86 42 119 10 32 35 81 56 110 20
28 57 80 81 116 42 62 66 90 153 172 22 20 59 57 83 83 50 52 95 83 160 109
25 9 70 40 100 68 98 90 288 156 501 174 36 3 66 7 68 8 1 2 118 2 260 1 216
-1 266 -4 312 -19z"/>
<path d="M5807 8544 c-1 -1 -27 -5 -57 -8 -30 -4 -75 -9 -100 -12 -24 -3 -93
-21 -154 -41 -101 -32 -113 -39 -168 -93 -34 -34 -75 -64 -96 -71 -20 -6 -53
-20 -73 -30 -51 -25 -260 -235 -305 -305 -20 -32 -50 -74 -67 -93 -32 -38 -64
-105 -69 -148 -2 -15 -13 -48 -25 -73 -12 -25 -25 -60 -28 -77 -32 -189 -26
-290 27 -401 17 -37 31 -69 31 -72 -1 -3 -4 -30 -7 -60 -3 -30 -9 -95 -12
-145 -6 -103 -35 -231 -59 -254 -12 -12 -37 -16 -108 -16 -90 0 -96 2 -232 58
-77 33 -176 72 -220 88 -79 28 -103 33 -198 44 -43 5 -835 6 -1107 2 -130 -2
-105 -11 -335 117 -206 114 -400 177 -618 202 -78 9 -178 14 -222 11 -176 -10
-333 -101 -387 -224 -57 -130 -19 -296 94 -412 48 -49 101 -80 192 -111 45
-15 109 -40 144 -54 35 -15 81 -29 104 -32 45 -6 167 -92 235 -166 152 -166
261 -238 457 -302 12 -4 16 -12 12 -22 -8 -20 -43 -222 -51 -289 -3 -27 -10
-81 -15 -120 -13 -104 -4 -377 15 -460 10 -38 17 -78 17 -87 -1 -10 -19 -57
-41 -106 -77 -171 -81 -200 -87 -582 l-6 -295 -38 -175 c-21 -96 -53 -211 -70
-255 -18 -44 -45 -118 -61 -164 -16 -46 -39 -102 -53 -125 -69 -119 -155 -300
-161 -340 -10 -62 11 -202 36 -251 12 -22 38 -59 58 -81 20 -23 54 -62 75 -87
44 -51 136 -103 206 -115 25 -4 92 -8 150 -7 l105 0 75 44 c198 117 257 169
290 258 25 67 30 127 35 433 2 135 6 261 9 280 16 98 66 259 120 390 19 47 37
109 40 139 5 42 15 66 45 105 21 28 59 82 85 121 25 38 46 63 46 55 2 -66 44
-205 105 -350 26 -60 28 -75 27 -190 -1 -212 30 -330 107 -406 50 -51 87 -69
171 -84 36 -7 72 -16 80 -20 35 -17 164 -28 403 -32 l57 -1 1 -36 c0 -20 2
-44 4 -54 2 -9 6 -57 9 -105 4 -48 8 -107 11 -132 3 -25 7 -81 10 -125 3 -44
7 -93 10 -110 2 -16 6 -68 10 -115 3 -47 8 -92 10 -100 2 -8 7 -49 10 -90 4
-41 9 -83 11 -94 2 -10 6 -44 9 -75 13 -124 37 -229 66 -289 26 -53 31 -75 30
-130 -1 -78 -3 -90 -29 -157 -70 -186 -82 -363 -37 -520 21 -72 45 -106 117
-166 79 -66 145 -96 228 -105 36 -3 76 -12 90 -19 44 -22 126 -36 191 -34 47
1 76 -4 109 -19 63 -30 148 -26 221 11 70 34 151 114 184 181 30 61 50 192 49
316 0 95 -21 154 -87 246 -41 57 -83 144 -91 187 -3 15 -7 35 -10 45 -2 9 -7
42 -11 72 -3 30 -7 66 -9 80 -5 25 -16 145 -21 211 -2 20 -6 60 -9 90 -11 97
-15 142 -22 274 -9 186 -12 655 -3 754 l7 84 71 71 c40 40 84 79 99 88 l28 17
2 -32 c2 -18 5 -45 7 -62 2 -16 7 -64 10 -105 3 -41 8 -86 10 -100 3 -14 7
-59 11 -100 3 -41 7 -81 9 -88 3 -7 7 -40 11 -75 3 -34 7 -73 10 -87 2 -14 6
-104 9 -200 7 -227 11 -261 40 -325 15 -36 25 -81 29 -134 9 -129 30 -186 96
-256 25 -26 47 -65 65 -115 34 -98 93 -188 180 -276 60 -60 79 -73 137 -92 78
-25 184 -24 258 3 29 10 57 14 80 9 64 -12 85 -15 141 -15 145 -3 277 93 313
225 34 126 48 208 43 254 -12 116 -114 236 -324 382 l-122 85 -21 65 c-20 61
-21 79 -15 320 9 371 10 383 39 510 8 36 18 81 21 100 5 30 16 88 40 210 3 14
8 59 11 100 9 125 41 189 169 339 138 162 207 396 180 611 -5 36 -8 148 -8
250 1 155 5 200 23 280 21 87 23 122 24 400 l2 305 41 170 c23 94 44 190 47
215 5 42 8 62 20 165 21 174 26 221 32 305 10 156 10 159 35 179 13 11 53 34
89 52 126 62 294 160 360 209 121 90 167 153 225 305 13 37 34 79 45 95 32 45
54 145 45 210 -4 30 -7 64 -6 75 1 11 3 50 5 87 3 51 -1 81 -15 120 -11 29
-22 73 -24 98 -10 122 -87 240 -190 291 -59 29 -72 31 -172 32 -98 1 -203 -6
-259 -17 -18 -4 -107 -13 -204 -21 -19 -2 -39 12 -80 54 -65 67 -102 94 -151
110 -66 21 -83 24 -184 25 -94 2 -104 4 -171 38 -119 62 -160 68 -417 65 -126
-1 -229 -2 -230 -3z m495 -108 c32 -9 93 -34 136 -56 77 -40 79 -40 163 -36
89 5 170 -9 212 -37 32 -21 105 -97 125 -130 l17 -28 90 6 c50 3 97 8 105 10
8 2 47 7 85 10 39 3 96 9 127 14 104 14 227 5 276 -20 70 -37 120 -123 127
-220 2 -30 12 -70 22 -89 13 -26 17 -52 15 -100 -5 -116 -5 -124 2 -171 9 -54
-6 -119 -38 -169 -12 -19 -35 -69 -50 -110 -47 -130 -82 -176 -201 -262 -51
-36 -224 -135 -348 -198 -63 -32 -146 -98 -148 -117 0 -4 -2 -26 -4 -48 -2
-22 -6 -80 -9 -130 -9 -131 -19 -230 -31 -310 -3 -16 -7 -50 -9 -75 -7 -70
-15 -116 -42 -235 -14 -60 -34 -148 -44 -195 -17 -74 -19 -118 -16 -351 2
-228 0 -279 -16 -355 -10 -49 -21 -105 -24 -124 -9 -52 -8 -363 1 -465 12
-128 9 -164 -20 -273 -29 -110 -83 -211 -151 -287 -68 -75 -138 -185 -156
-246 -9 -30 -19 -89 -22 -132 -3 -43 -10 -95 -15 -115 -5 -20 -12 -53 -15 -72
-3 -19 -8 -45 -10 -56 -2 -12 -7 -39 -10 -60 -4 -22 -11 -57 -17 -79 -30 -110
-36 -179 -45 -525 -6 -262 0 -333 36 -418 20 -46 35 -60 158 -149 145 -104
240 -191 268 -245 21 -39 24 -125 6 -188 -6 -25 -14 -62 -17 -82 -8 -52 -61
-117 -118 -146 -58 -29 -142 -32 -229 -8 -55 14 -60 14 -105 -6 -65 -29 -162
-32 -227 -8 -90 34 -202 174 -251 315 -20 57 -40 93 -69 125 -63 68 -76 101
-83 220 -3 60 -12 100 -29 136 -29 64 -32 86 -39 304 -3 96 -8 193 -10 215 -4
35 -18 150 -30 255 -2 19 -7 64 -10 100 -5 61 -8 81 -20 178 -2 20 -7 69 -10
107 -8 97 -12 106 -38 100 -12 -3 -41 -7 -63 -9 -53 -5 -107 -42 -206 -143
-85 -86 -92 -102 -98 -228 -10 -190 0 -787 15 -910 2 -16 7 -64 10 -105 3 -41
8 -91 10 -110 2 -19 9 -82 15 -140 15 -143 18 -164 36 -249 20 -94 40 -139 99
-226 26 -38 53 -82 61 -97 21 -41 28 -138 14 -197 -7 -28 -13 -73 -14 -99 -3
-64 -29 -113 -91 -170 -79 -73 -146 -88 -225 -50 -35 16 -66 21 -140 23 -75 1
-105 6 -145 24 -28 13 -74 24 -105 25 -68 3 -110 21 -177 75 -77 61 -91 87
-109 211 -12 82 -11 116 10 235 5 29 42 140 55 163 16 29 22 75 23 178 1 74
-2 97 -15 112 -31 34 -59 120 -72 220 -3 23 -7 61 -10 85 -3 23 -7 58 -10 77
-2 19 -7 60 -10 90 -3 30 -8 66 -10 80 -2 14 -6 59 -10 100 -3 41 -7 91 -9
110 -3 19 -7 71 -11 115 -3 44 -8 100 -10 125 -3 25 -7 81 -10 125 -3 44 -7
96 -10 115 -4 33 -17 202 -18 227 0 12 -18 7 -76 -22 -39 -21 -106 -27 -141
-13 -14 6 -54 9 -90 8 -120 -5 -169 -1 -199 15 -17 8 -43 15 -59 15 -15 0 -51
7 -79 15 -120 36 -162 138 -160 390 0 140 -4 161 -65 300 -17 38 -35 86 -40
105 -5 19 -14 53 -19 75 -18 71 -13 184 15 304 14 63 26 118 26 123 0 6 -37
-41 -81 -104 -45 -62 -98 -133 -119 -158 -20 -25 -64 -86 -98 -136 -33 -50
-67 -97 -74 -105 -31 -31 -46 -67 -53 -124 -4 -33 -24 -103 -45 -155 -103
-258 -121 -354 -125 -685 -2 -148 -7 -292 -10 -319 -7 -56 -38 -124 -69 -148
-67 -53 -121 -91 -144 -101 -15 -6 -42 -23 -61 -37 -33 -24 -41 -25 -149 -23
-65 1 -128 7 -146 14 -56 23 -106 61 -128 98 -12 20 -34 47 -50 59 -51 42 -65
82 -73 198 -5 71 -4 73 52 180 30 60 70 134 88 165 18 30 49 102 69 160 20 57
40 113 45 124 45 103 79 232 121 460 5 28 11 183 14 345 5 357 8 377 77 529
61 133 62 140 43 215 -8 32 -18 73 -20 90 -10 59 -12 321 -3 381 4 33 11 85
14 115 3 31 7 64 9 75 4 23 19 129 18 132 0 3 43 123 52 144 5 12 -8 23 -61
46 -37 17 -90 39 -118 49 -106 38 -228 119 -290 191 -73 85 -110 119 -220 199
-57 42 -80 52 -120 56 -27 3 -78 19 -112 35 -33 17 -87 39 -119 48 -83 24
-125 48 -167 94 -55 62 -80 117 -83 190 -6 130 73 215 239 257 61 16 109 16
317 -2 141 -12 364 -88 532 -180 68 -38 159 -86 203 -107 l80 -39 165 7 c91 4
271 7 400 6 721 -1 718 0 893 -72 304 -124 296 -122 395 -125 98 -3 149 9 202
46 23 16 32 36 49 107 29 118 30 124 36 228 3 49 10 117 16 150 10 59 10 63
-24 130 -38 76 -55 146 -51 213 5 99 17 159 39 207 13 27 28 75 35 106 8 42
22 69 53 107 23 27 57 74 75 104 19 30 61 78 95 108 34 29 72 66 84 82 33 45
77 74 151 98 55 18 72 28 95 61 32 47 71 72 153 98 91 30 145 41 242 47 48 4
88 8 90 9 1 1 89 3 195 4 144 1 206 -2 249 -13z"/>
<path d="M5742 8284 c-117 -14 -224 -47 -251 -75 -10 -11 -26 -37 -36 -59 -15
-34 -23 -39 -59 -45 -92 -14 -134 -35 -180 -88 -25 -29 -65 -68 -90 -87 -24
-19 -59 -60 -77 -90 -18 -30 -48 -72 -66 -93 -22 -25 -33 -48 -34 -70 -1 -61
-6 -77 -26 -100 -29 -32 -34 -51 -40 -152 l-5 -90 51 -100 c48 -94 50 -102 39
-135 -17 -51 -23 -91 -33 -245 -11 -146 -60 -317 -102 -356 -69 -64 -149 -95
-263 -104 -123 -10 -198 10 -445 113 -207 87 -187 85 -715 85 -256 0 -532 -3
-615 -7 l-150 -8 -84 36 c-46 19 -113 53 -150 74 -210 122 -435 207 -582 217
-46 4 -95 8 -109 11 -145 26 -300 -32 -300 -114 0 -73 57 -134 155 -164 39
-11 95 -33 125 -49 31 -15 75 -29 100 -30 25 -1 55 -6 68 -11 35 -12 229 -166
286 -226 96 -103 111 -117 163 -150 49 -31 201 -97 338 -146 33 -12 66 -25 73
-29 18 -12 15 -65 -9 -127 -45 -119 -60 -182 -83 -350 -30 -223 -29 -402 4
-535 28 -114 23 -146 -45 -300 -29 -66 -56 -140 -59 -165 -4 -25 -9 -171 -12
-325 -5 -321 -7 -350 -34 -455 -8 -31 -33 -152 -46 -218 -3 -13 -18 -58 -35
-100 -17 -42 -48 -125 -69 -184 -21 -59 -77 -180 -125 -268 l-86 -162 8 -55
c9 -61 35 -92 53 -63 5 8 10 13 11 10 0 -3 3 -18 5 -35 8 -49 37 -89 79 -109
39 -18 39 -18 57 3 l17 22 21 -21 c11 -11 26 -20 32 -21 7 0 21 -2 30 -4 13
-2 20 6 26 28 8 30 11 32 53 32 42 0 44 1 45 30 0 35 3 38 27 30 9 -4 28 -4
41 -1 43 11 50 57 51 316 1 235 9 354 25 420 5 19 12 51 15 70 9 50 31 121 72
230 58 156 60 163 67 220 7 61 33 122 69 160 12 14 55 72 95 130 40 58 95 133
121 167 34 43 57 86 76 144 34 102 63 135 129 144 64 10 117 -7 194 -62 98
-69 101 -102 22 -228 -20 -33 -42 -77 -49 -97 -25 -75 -1 -222 52 -333 58
-118 70 -179 72 -345 2 -205 20 -260 84 -260 13 0 32 7 40 15 15 12 22 10 61
-21 43 -34 47 -35 110 -31 75 5 100 13 100 33 0 19 19 18 27 -1 7 -19 55 -45
82 -45 29 0 78 32 90 58 10 21 12 22 35 7 23 -15 25 -15 34 2 22 43 21 71 -4
134 -33 83 -37 86 -98 105 -28 8 -91 43 -141 77 -83 57 -93 68 -125 132 -32
63 -35 77 -34 153 1 76 3 85 28 111 33 35 107 87 121 86 19 -1 75 -27 75 -35
0 -4 19 -20 43 -35 23 -15 74 -61 113 -102 40 -41 87 -82 105 -91 51 -26 60
-68 54 -241 -9 -256 -9 -274 -1 -386 4 -60 9 -121 11 -135 2 -14 6 -63 10
-110 4 -47 8 -101 10 -120 2 -19 6 -75 10 -125 3 -49 8 -103 10 -120 2 -16 7
-61 10 -100 11 -138 13 -161 20 -230 4 -38 8 -81 10 -95 12 -89 15 -110 19
-150 3 -25 8 -67 11 -95 11 -90 26 -139 58 -189 31 -49 32 -52 31 -165 0 -145
-8 -199 -32 -248 -18 -34 -31 -74 -50 -153 -13 -52 -6 -214 11 -246 35 -68
143 -112 193 -79 25 16 27 16 41 -5 20 -29 89 -60 133 -59 19 0 59 8 87 18
l53 18 15 -24 c9 -13 32 -31 51 -40 33 -16 35 -16 62 4 48 36 73 81 66 123 -4
22 -1 47 6 60 7 13 14 45 15 72 3 44 -2 56 -57 140 -33 51 -67 109 -75 128
-22 49 -52 158 -58 205 -3 22 -7 51 -10 63 -2 13 -9 69 -15 125 -6 56 -13 118
-15 137 -2 19 -7 71 -10 115 -3 44 -8 91 -10 105 -12 83 -19 312 -20 640 0
484 -1 481 124 611 149 157 213 195 338 203 48 3 106 8 128 11 54 8 74 -9 79
-65 3 -25 7 -76 11 -115 3 -38 8 -86 10 -105 2 -19 7 -62 9 -95 3 -33 8 -76
11 -95 2 -19 7 -62 10 -95 9 -89 15 -145 21 -190 13 -86 25 -266 28 -427 3
-102 6 -120 31 -169 22 -43 28 -71 31 -139 6 -118 14 -140 62 -175 36 -27 44
-40 71 -125 33 -104 69 -165 138 -236 l45 -47 58 6 c70 6 123 33 114 59 -10
33 6 39 41 13 37 -29 78 -44 150 -55 89 -14 144 26 131 95 -4 22 -2 36 8 44 8
6 17 28 20 47 6 31 2 41 -32 82 -22 26 -102 92 -178 147 -175 127 -197 149
-233 244 -44 114 -50 204 -36 551 10 263 17 335 40 430 8 30 23 105 34 165 12
61 23 121 26 135 3 14 8 59 11 100 3 41 10 93 16 114 24 93 94 216 173 301 60
65 110 149 136 227 26 79 25 55 17 468 -4 216 1 281 29 395 14 58 17 116 16
350 -1 297 -4 275 56 539 30 129 29 123 46 256 30 221 31 228 50 502 2 37 11
83 19 102 28 67 114 133 286 222 284 145 357 207 405 342 15 42 38 94 52 115
32 50 37 84 21 132 -16 46 -16 42 2 117 13 55 12 57 -17 110 -24 44 -28 59
-22 88 8 37 -16 110 -41 125 -17 11 -150 13 -219 4 -31 -4 -83 -10 -116 -14
-33 -3 -73 -7 -90 -10 -16 -2 -62 -7 -102 -10 -39 -3 -92 -14 -116 -24 -86
-37 -108 -32 -103 22 5 55 -11 92 -62 142 -49 47 -82 55 -202 48 l-85 -4 -113
54 -113 55 -207 -1 c-114 0 -253 -7 -310 -13z"/>
</g>
</svg>
